<svg xmlns="http://www.w3.org/2000/svg" viewBox="0 0 603 182" role="img" aria-label="Amazon">
  <path fill="#FF9900" d="M374.006 142.184c-35.915 26.57-88.017 40.632-132.775 40.632-62.86 0-119.473-23.27-162.18-61.96-3.35-3.03-.35-7.17 3.67-4.81 46.2 26.87 103.32 43.05 162.45 43.05 39.87 0 83.71-8.27 124.07-25.4 6.08-2.58 11.2 3.98 5.28 8.49z"/>
  <path fill="#FF9900" d="M388.556 125.536c-4.59-5.89-30.36-2.79-41.99-1.4-3.52.41-4.06-2.64-.88-4.85 20.56-14.47 54.38-10.3 58.32-5.45 3.94 4.9-1.03 38.76-20.31 54.92-2.97 2.48-5.81 1.16-4.49-2.61 4.35-10.86 14.08-35.26 9.35-40.61z"/>
  <path fill="#232F3E" d="M346.254 14.25V3.54c0-1.17.89-2.06 2.06-2.06h36.58c1.17 0 2.06.89 2.06 2.06v9.01c-.02 1.17-.99 2.7-2.72 5.13l-18.78 26.84c6.98-.17 14.36.87 20.69 4.43 1.43.83 1.83 2.04 1.94 3.24v11.22c0 1.18-1.3 2.57-2.66 1.86-11.12-5.82-25.96-6.26-38.24-.05-1.18.64-2.41-.65-2.41-1.83v-10.7c0-1.33.02-3.6 1.39-5.63l21.77-31.18h-18.9c-1.17 0-2.06-.89-2.06-2.06zm-143.48 72.67h-14.3c-1.36-.09-2.45-1.12-2.48-2.48V3.72c.03-1.3 1.1-2.34 2.48-2.48h13.33c1.23.07 2.24 1.04 2.45 2.27v12.45h.41c3.43-11.74 9.9-17.22 18.64-17.22 8.9 0 14.48 5.48 18.47 17.22 3.4-11.74 11.14-17.22 19.34-17.22 5.89 0 12.33 2.43 16.27 7.89 4.45 5.89 3.53 14.48 3.53 22.16v44.53c-.03 1.3-1.1 2.34-2.48 2.48h-14.35c-1.27-.12-2.3-1.1-2.41-2.38V27.14c0-3.43.35-11.95-.45-15.27-.89-3.84-3.56-4.94-7.03-4.94-2.89 0-5.93 1.93-7.17 5.01-1.23 3.07-1.11 8.22-1.11 11.54v37.81c-.04 1.3-1.11 2.34-2.49 2.48h-14.28c-1.28-.11-2.32-1.09-2.43-2.37V27.14c0-8.54 1.41-21.12-7.03-21.12-8.58 0-8.24 9.81-8.24 16.27v37.4c-.03 1.3-1.1 2.34-2.48 2.48zM603 79.19c0 27.33-7.99 49.55-21.98 65.35-16.27 17.63-39.78 27.02-63.56 27.02-15.68 0-30.36-3.25-43.11-8.9-1.18-.52-2.48.52-2.48 1.77v8.22c-.04 1.23-1.01 2.21-2.24 2.3h-13.6c-1.27-.12-2.3-1.1-2.41-2.38V3.72c.03-1.3 1.1-2.34 2.48-2.48h12.74c1.18 0 2.16.89 2.3 2.06v7.76c0 1.77 2.66 1.93 3.84 1.41 14.48-7.03 30.77-10.7 47.47-10.7 24.06 0 46.65 8.72 63.56 25.22 16.27 16.27 25.22 38.24 25.22 61.24zm-20.1 0c0-17.22-4.45-33.49-12.15-47.47-8.9-15.27-24.2-24.88-41.42-24.88-11.74 0-22.75 3.84-32.08 10.7-1.34.93-1.59 2.89-.52 4.18 8.13 9.81 12.74 22.16 12.74 35.15 0 13.33-4.45 25.68-12.33 35.49-.93 1.18-.67 2.89.67 3.66 9.22 5.48 19.75 8.45 30.77 8.45 17.63 0 33.08-9.22 41.98-24.2 7.99-13.6 12.33-29.87 12.33-47.08zM221.28 14.25V3.54c0-1.17.89-2.06 2.06-2.06h36.58c1.17 0 2.06.89 2.06 2.06v9.01c-.02 1.17-.99 2.7-2.72 5.13l-18.78 26.84c6.98-.17 14.36.87 20.69 4.43 1.43.83 1.83 2.04 1.94 3.24v11.22c0 1.18-1.3 2.57-2.66 1.86-11.12-5.82-25.96-6.26-38.24-.05-1.18.64-2.41-.65-2.41-1.83v-10.7c0-1.33.02-3.6 1.39-5.63l21.77-31.18h-18.9c-1.17 0-2.06-.89-2.06-2.06z"/>
</svg>
